<svg width="24" height="25" viewBox="0 0 24 25" fill="none" xmlns="http://www.w3.org/2000/svg">
<path d="M20 7.72302H4C2.89543 7.72302 2 8.61845 2 9.72302V19.723C2 20.8276 2.89543 21.723 4 21.723H20C21.1046 21.723 22 20.8276 22 19.723V9.72302C22 8.61845 21.1046 7.72302 20 7.72302Z" stroke="#181818" stroke-width="2" stroke-linecap="round" stroke-linejoin="round"/>
<path d="M16 21.723V5.72302C16 5.19259 15.7893 4.68388 15.4142 4.30881C15.0391 3.93374 14.5304 3.72302 14 3.72302H10C9.46957 3.72302 8.96086 3.93374 8.58579 4.30881C8.21071 4.68388 8 5.19259 8 5.72302V21.723" stroke="#181818" stroke-width="2" stroke-linecap="round" stroke-linejoin="round"/>
</svg>
