<svg width="24" height="25" viewBox="0 0 24 25" fill="none" xmlns="http://www.w3.org/2000/svg">
<path d="M17 21.723V19.723C17 18.6622 16.5786 17.6447 15.8284 16.8946C15.0783 16.1445 14.0609 15.723 13 15.723H5C3.93913 15.723 2.92172 16.1445 2.17157 16.8946C1.42143 17.6447 1 18.6622 1 19.723V21.723" stroke="#181818" stroke-width="2" stroke-linecap="round" stroke-linejoin="round"/>
<path d="M9 11.723C11.2091 11.723 13 9.93216 13 7.72302C13 5.51388 11.2091 3.72302 9 3.72302C6.79086 3.72302 5 5.51388 5 7.72302C5 9.93216 6.79086 11.723 9 11.723Z" stroke="#181818" stroke-width="2" stroke-linecap="round" stroke-linejoin="round"/>
<path d="M23 21.723V19.723C22.9993 18.8368 22.7044 17.9758 22.1614 17.2753C21.6184 16.5749 20.8581 16.0746 20 15.853" stroke="#181818" stroke-width="2" stroke-linecap="round" stroke-linejoin="round"/>
<path d="M16 3.85303C16.8604 4.07333 17.623 4.57373 18.1676 5.27534C18.7122 5.97695 19.0078 6.83986 19.0078 7.72803C19.0078 8.6162 18.7122 9.47911 18.1676 10.1807C17.623 10.8823 16.8604 11.3827 16 11.603" stroke="#181818" stroke-width="2" stroke-linecap="round" stroke-linejoin="round"/>
</svg>
